<mxfile host="app.diagrams.net" modified="2022-11-14T01:49:21.740Z" agent="5.0 (Windows NT 10.0; Win64; x64) AppleWebKit/537.36 (KHTML, like Gecko) Chrome/107.0.0.0 Safari/537.36" etag="YISb65v3dDJwxPqCqT2d" version="20.5.3" type="github">
  <diagram id="BBmWvBnymKctrQ3piECR" name="第 1 页">
    <mxGraphModel dx="2734" dy="625" grid="1" gridSize="10" guides="1" tooltips="1" connect="1" arrows="1" fold="1" page="1" pageScale="1" pageWidth="827" pageHeight="1169" math="0" shadow="0">
      <root>
        <mxCell id="0" />
        <mxCell id="1" parent="0" />
        <mxCell id="XY5Rfa_UpzDAay3s06gO-60" value="" style="edgeStyle=orthogonalEdgeStyle;rounded=0;orthogonalLoop=1;jettySize=auto;html=1;fontSize=17;startArrow=none;startFill=0;endArrow=classic;endFill=1;" edge="1" parent="1" source="XY5Rfa_UpzDAay3s06gO-1" target="XY5Rfa_UpzDAay3s06gO-59">
          <mxGeometry relative="1" as="geometry" />
        </mxCell>
        <mxCell id="XY5Rfa_UpzDAay3s06gO-1" value="&lt;font style=&quot;font-size: 21px;&quot;&gt;context&lt;/font&gt;" style="ellipse;whiteSpace=wrap;html=1;" vertex="1" parent="1">
          <mxGeometry x="-908.5" y="710" width="120" height="80" as="geometry" />
        </mxCell>
        <mxCell id="XY5Rfa_UpzDAay3s06gO-26" value="" style="edgeStyle=orthogonalEdgeStyle;rounded=0;orthogonalLoop=1;jettySize=auto;html=1;fontSize=21;startArrow=none;startFill=0;endArrow=oval;endFill=1;exitX=0.5;exitY=1;exitDx=0;exitDy=0;entryX=0.5;entryY=0;entryDx=0;entryDy=0;" edge="1" parent="1" source="XY5Rfa_UpzDAay3s06gO-24" target="XY5Rfa_UpzDAay3s06gO-3">
          <mxGeometry relative="1" as="geometry">
            <mxPoint x="-250" y="749" as="targetPoint" />
            <Array as="points">
              <mxPoint x="-370" y="779" />
              <mxPoint x="-370" y="779" />
            </Array>
          </mxGeometry>
        </mxCell>
        <mxCell id="XY5Rfa_UpzDAay3s06gO-30" value="" style="edgeStyle=orthogonalEdgeStyle;rounded=0;orthogonalLoop=1;jettySize=auto;html=1;fontSize=21;startArrow=oval;startFill=1;endArrow=none;endFill=0;" edge="1" parent="1" source="XY5Rfa_UpzDAay3s06gO-3" target="XY5Rfa_UpzDAay3s06gO-27">
          <mxGeometry relative="1" as="geometry" />
        </mxCell>
        <mxCell id="XY5Rfa_UpzDAay3s06gO-31" value="" style="edgeStyle=orthogonalEdgeStyle;rounded=0;orthogonalLoop=1;jettySize=auto;html=1;fontSize=21;startArrow=oval;startFill=1;endArrow=none;endFill=0;" edge="1" parent="1" source="XY5Rfa_UpzDAay3s06gO-3" target="XY5Rfa_UpzDAay3s06gO-17">
          <mxGeometry relative="1" as="geometry" />
        </mxCell>
        <mxCell id="XY5Rfa_UpzDAay3s06gO-33" style="edgeStyle=orthogonalEdgeStyle;rounded=0;orthogonalLoop=1;jettySize=auto;html=1;exitX=0;exitY=0.5;exitDx=0;exitDy=0;entryX=1;entryY=0.5;entryDx=0;entryDy=0;fontSize=21;startArrow=oval;startFill=1;endArrow=none;endFill=0;" edge="1" parent="1" source="XY5Rfa_UpzDAay3s06gO-3" target="XY5Rfa_UpzDAay3s06gO-7">
          <mxGeometry relative="1" as="geometry" />
        </mxCell>
        <mxCell id="XY5Rfa_UpzDAay3s06gO-3" value="&lt;font style=&quot;font-size: 21px;&quot;&gt;engine&lt;/font&gt;" style="ellipse;whiteSpace=wrap;html=1;fillColor=#dae8fc;strokeColor=#6c8ebf;" vertex="1" parent="1">
          <mxGeometry x="-430" y="804" width="120" height="80" as="geometry" />
        </mxCell>
        <mxCell id="XY5Rfa_UpzDAay3s06gO-19" value="" style="edgeStyle=orthogonalEdgeStyle;rounded=0;orthogonalLoop=1;jettySize=auto;html=1;fontSize=21;startArrow=none;startFill=0;endArrow=oval;endFill=1;exitX=0.5;exitY=1;exitDx=0;exitDy=0;entryX=0.5;entryY=0;entryDx=0;entryDy=0;" edge="1" parent="1" source="XY5Rfa_UpzDAay3s06gO-9" target="XY5Rfa_UpzDAay3s06gO-7">
          <mxGeometry relative="1" as="geometry">
            <mxPoint x="-530" y="804" as="targetPoint" />
          </mxGeometry>
        </mxCell>
        <mxCell id="XY5Rfa_UpzDAay3s06gO-32" value="" style="edgeStyle=orthogonalEdgeStyle;rounded=0;orthogonalLoop=1;jettySize=auto;html=1;fontSize=21;startArrow=oval;startFill=1;endArrow=none;endFill=0;" edge="1" parent="1" source="XY5Rfa_UpzDAay3s06gO-7" target="XY5Rfa_UpzDAay3s06gO-21">
          <mxGeometry relative="1" as="geometry" />
        </mxCell>
        <mxCell id="XY5Rfa_UpzDAay3s06gO-7" value="&lt;font style=&quot;font-size: 21px;&quot;&gt;router&lt;/font&gt;" style="ellipse;whiteSpace=wrap;html=1;fontSize=15;fillColor=#fff2cc;strokeColor=#d6b656;" vertex="1" parent="1">
          <mxGeometry x="-670" y="804" width="120" height="80" as="geometry" />
        </mxCell>
        <mxCell id="XY5Rfa_UpzDAay3s06gO-9" value="handle" style="rounded=0;whiteSpace=wrap;html=1;fontSize=21;" vertex="1" parent="1">
          <mxGeometry x="-650" y="724" width="80" height="30" as="geometry" />
        </mxCell>
        <mxCell id="XY5Rfa_UpzDAay3s06gO-15" value="" style="endArrow=none;dashed=1;html=1;dashPattern=1 3;strokeWidth=2;rounded=0;fontSize=21;" edge="1" parent="1" source="XY5Rfa_UpzDAay3s06gO-1">
          <mxGeometry width="50" height="50" relative="1" as="geometry">
            <mxPoint x="-770" y="824" as="sourcePoint" />
            <mxPoint x="-650" y="750" as="targetPoint" />
          </mxGeometry>
        </mxCell>
        <mxCell id="XY5Rfa_UpzDAay3s06gO-16" value="" style="endArrow=classic;html=1;rounded=0;fontSize=21;exitX=0;exitY=0.5;exitDx=0;exitDy=0;entryX=1;entryY=0.5;entryDx=0;entryDy=0;" edge="1" parent="1" source="XY5Rfa_UpzDAay3s06gO-24" target="XY5Rfa_UpzDAay3s06gO-9">
          <mxGeometry width="50" height="50" relative="1" as="geometry">
            <mxPoint x="-450" y="834" as="sourcePoint" />
            <mxPoint x="-500" y="764" as="targetPoint" />
          </mxGeometry>
        </mxCell>
        <mxCell id="XY5Rfa_UpzDAay3s06gO-17" value="&lt;font style=&quot;font-size: 18px;&quot;&gt;addRoute&lt;/font&gt;" style="rounded=0;whiteSpace=wrap;html=1;fontSize=21;" vertex="1" parent="1">
          <mxGeometry x="-420" y="954" width="100" height="30" as="geometry" />
        </mxCell>
        <mxCell id="XY5Rfa_UpzDAay3s06gO-21" value="&lt;font style=&quot;font-size: 18px;&quot;&gt;addRoute&lt;/font&gt;" style="rounded=0;whiteSpace=wrap;html=1;fontSize=21;" vertex="1" parent="1">
          <mxGeometry x="-660" y="954" width="100" height="30" as="geometry" />
        </mxCell>
        <mxCell id="XY5Rfa_UpzDAay3s06gO-24" value="serveHTTP" style="rounded=0;whiteSpace=wrap;html=1;fontSize=21;strokeColor=#FF0000;" vertex="1" parent="1">
          <mxGeometry x="-427" y="724" width="113" height="30" as="geometry" />
        </mxCell>
        <mxCell id="XY5Rfa_UpzDAay3s06gO-27" value="&lt;font style=&quot;font-size: 17px;&quot;&gt;GET\POST&lt;/font&gt;" style="rounded=0;whiteSpace=wrap;html=1;fontSize=21;strokeWidth=1;" vertex="1" parent="1">
          <mxGeometry x="-280" y="829" width="120" height="30" as="geometry" />
        </mxCell>
        <mxCell id="XY5Rfa_UpzDAay3s06gO-37" style="edgeStyle=orthogonalEdgeStyle;rounded=0;orthogonalLoop=1;jettySize=auto;html=1;exitX=0.5;exitY=1;exitDx=0;exitDy=0;entryX=0.5;entryY=0;entryDx=0;entryDy=0;fontSize=21;startArrow=oval;startFill=1;endArrow=none;endFill=0;" edge="1" parent="1" source="XY5Rfa_UpzDAay3s06gO-34" target="XY5Rfa_UpzDAay3s06gO-35">
          <mxGeometry relative="1" as="geometry" />
        </mxCell>
        <mxCell id="XY5Rfa_UpzDAay3s06gO-38" style="edgeStyle=orthogonalEdgeStyle;rounded=0;orthogonalLoop=1;jettySize=auto;html=1;exitX=1;exitY=0.5;exitDx=0;exitDy=0;entryX=0;entryY=0;entryDx=0;entryDy=0;fontSize=21;startArrow=oval;startFill=1;endArrow=none;endFill=0;" edge="1" parent="1" source="XY5Rfa_UpzDAay3s06gO-34" target="XY5Rfa_UpzDAay3s06gO-36">
          <mxGeometry relative="1" as="geometry" />
        </mxCell>
        <mxCell id="XY5Rfa_UpzDAay3s06gO-34" value="结构体" style="ellipse;whiteSpace=wrap;html=1;fontSize=21;" vertex="1" parent="1">
          <mxGeometry x="-1120" y="30" width="100" height="30" as="geometry" />
        </mxCell>
        <mxCell id="XY5Rfa_UpzDAay3s06gO-35" value="方法" style="rounded=0;whiteSpace=wrap;html=1;fontSize=21;" vertex="1" parent="1">
          <mxGeometry x="-1115" y="90" width="90" height="30" as="geometry" />
        </mxCell>
        <mxCell id="XY5Rfa_UpzDAay3s06gO-39" style="edgeStyle=orthogonalEdgeStyle;rounded=0;orthogonalLoop=1;jettySize=auto;html=1;entryX=1;entryY=0.5;entryDx=0;entryDy=0;fontSize=21;startArrow=none;startFill=0;endArrow=classic;endFill=1;exitX=0.5;exitY=1;exitDx=0;exitDy=0;" edge="1" parent="1" source="XY5Rfa_UpzDAay3s06gO-41" target="XY5Rfa_UpzDAay3s06gO-35">
          <mxGeometry relative="1" as="geometry">
            <mxPoint x="-830" y="80" as="sourcePoint" />
            <Array as="points">
              <mxPoint x="-840" y="105" />
            </Array>
          </mxGeometry>
        </mxCell>
        <mxCell id="XY5Rfa_UpzDAay3s06gO-40" value="调用" style="edgeLabel;html=1;align=center;verticalAlign=middle;resizable=0;points=[];fontSize=21;" vertex="1" connectable="0" parent="XY5Rfa_UpzDAay3s06gO-39">
          <mxGeometry x="-0.167" y="-4" relative="1" as="geometry">
            <mxPoint x="1" as="offset" />
          </mxGeometry>
        </mxCell>
        <mxCell id="XY5Rfa_UpzDAay3s06gO-36" value="结构体" style="ellipse;whiteSpace=wrap;html=1;fontSize=21;" vertex="1" parent="1">
          <mxGeometry x="-1000" y="30" width="100" height="30" as="geometry" />
        </mxCell>
        <mxCell id="XY5Rfa_UpzDAay3s06gO-41" value="方法" style="rounded=0;whiteSpace=wrap;html=1;fontSize=21;" vertex="1" parent="1">
          <mxGeometry x="-885" y="30" width="90" height="30" as="geometry" />
        </mxCell>
        <mxCell id="XY5Rfa_UpzDAay3s06gO-43" value="" style="endArrow=classic;html=1;rounded=0;fontSize=21;exitX=0.5;exitY=1;exitDx=0;exitDy=0;entryX=1;entryY=0.5;entryDx=0;entryDy=0;" edge="1" parent="1" source="XY5Rfa_UpzDAay3s06gO-27" target="XY5Rfa_UpzDAay3s06gO-17">
          <mxGeometry width="50" height="50" relative="1" as="geometry">
            <mxPoint x="-148.25" y="924" as="sourcePoint" />
            <mxPoint x="-291.75" y="969" as="targetPoint" />
            <Array as="points">
              <mxPoint x="-220" y="969" />
            </Array>
          </mxGeometry>
        </mxCell>
        <mxCell id="XY5Rfa_UpzDAay3s06gO-52" value="" style="edgeStyle=orthogonalEdgeStyle;rounded=0;orthogonalLoop=1;jettySize=auto;html=1;fontSize=19;startArrow=none;startFill=0;endArrow=classic;endFill=1;" edge="1" parent="1" source="XY5Rfa_UpzDAay3s06gO-45" target="XY5Rfa_UpzDAay3s06gO-51">
          <mxGeometry relative="1" as="geometry" />
        </mxCell>
        <mxCell id="XY5Rfa_UpzDAay3s06gO-45" value="&lt;font style=&quot;font-size: 19px;&quot;&gt;Run&lt;/font&gt;" style="rounded=0;whiteSpace=wrap;html=1;fontSize=21;" vertex="1" parent="1">
          <mxGeometry x="-276.5" y="724" width="113" height="30" as="geometry" />
        </mxCell>
        <mxCell id="XY5Rfa_UpzDAay3s06gO-50" value="" style="endArrow=none;html=1;rounded=0;fontSize=21;entryX=0.5;entryY=1;entryDx=0;entryDy=0;startArrow=oval;startFill=1;" edge="1" parent="1" source="XY5Rfa_UpzDAay3s06gO-3" target="XY5Rfa_UpzDAay3s06gO-45">
          <mxGeometry width="50" height="50" relative="1" as="geometry">
            <mxPoint x="-290" y="814" as="sourcePoint" />
            <mxPoint x="-240" y="764" as="targetPoint" />
          </mxGeometry>
        </mxCell>
        <mxCell id="XY5Rfa_UpzDAay3s06gO-51" value="&lt;font style=&quot;font-size: 19px;&quot;&gt;ListenAndServe&lt;br&gt;(addr,engine)&lt;br&gt;&lt;/font&gt;" style="rounded=0;whiteSpace=wrap;html=1;fontSize=21;strokeColor=#FF0000;" vertex="1" parent="1">
          <mxGeometry x="-130" y="714" width="170" height="50" as="geometry" />
        </mxCell>
        <mxCell id="XY5Rfa_UpzDAay3s06gO-54" value="" style="curved=1;endArrow=classic;html=1;rounded=0;fontSize=17;entryX=0.5;entryY=0;entryDx=0;entryDy=0;" edge="1" parent="1" source="XY5Rfa_UpzDAay3s06gO-51" target="XY5Rfa_UpzDAay3s06gO-24">
          <mxGeometry width="50" height="50" relative="1" as="geometry">
            <mxPoint x="-30" y="714" as="sourcePoint" />
            <mxPoint y="664" as="targetPoint" />
            <Array as="points">
              <mxPoint y="714" />
              <mxPoint x="-200" y="654" />
            </Array>
          </mxGeometry>
        </mxCell>
        <mxCell id="XY5Rfa_UpzDAay3s06gO-58" value="" style="endArrow=classic;html=1;rounded=0;fontSize=18;entryX=1;entryY=0.5;entryDx=0;entryDy=0;exitX=0;exitY=0.5;exitDx=0;exitDy=0;" edge="1" parent="1" source="XY5Rfa_UpzDAay3s06gO-17" target="XY5Rfa_UpzDAay3s06gO-21">
          <mxGeometry width="50" height="50" relative="1" as="geometry">
            <mxPoint x="-510" y="964" as="sourcePoint" />
            <mxPoint x="-460" y="914" as="targetPoint" />
          </mxGeometry>
        </mxCell>
        <mxCell id="XY5Rfa_UpzDAay3s06gO-59" value="&lt;font style=&quot;font-size: 17px;&quot;&gt;一些用来Write的方法&lt;br&gt;String,Data,Html&lt;br&gt;&lt;/font&gt;" style="rounded=0;whiteSpace=wrap;html=1;fontSize=21;" vertex="1" parent="1">
          <mxGeometry x="-930" y="840" width="163" height="44" as="geometry" />
        </mxCell>
        <mxCell id="XY5Rfa_UpzDAay3s06gO-61" value="&lt;font style=&quot;font-size: 17px;&quot;&gt;一些handler函数&lt;/font&gt;" style="rounded=0;whiteSpace=wrap;html=1;fontSize=21;" vertex="1" parent="1">
          <mxGeometry x="-928.5" y="954" width="163" height="30" as="geometry" />
        </mxCell>
        <mxCell id="XY5Rfa_UpzDAay3s06gO-62" value="" style="endArrow=none;dashed=1;html=1;dashPattern=1 3;strokeWidth=2;rounded=0;fontSize=21;entryX=0;entryY=0.5;entryDx=0;entryDy=0;startArrow=classic;startFill=1;exitX=1;exitY=0.5;exitDx=0;exitDy=0;" edge="1" parent="1" source="XY5Rfa_UpzDAay3s06gO-61" target="XY5Rfa_UpzDAay3s06gO-21">
          <mxGeometry width="50" height="50" relative="1" as="geometry">
            <mxPoint x="-729.1334182639112" y="1069.9953899899592" as="sourcePoint" />
            <mxPoint x="-560" y="992.73" as="targetPoint" />
          </mxGeometry>
        </mxCell>
        <mxCell id="XY5Rfa_UpzDAay3s06gO-63" value="" style="edgeStyle=orthogonalEdgeStyle;rounded=0;orthogonalLoop=1;jettySize=auto;html=1;fontSize=17;startArrow=none;startFill=0;endArrow=classic;endFill=1;exitX=0.5;exitY=0;exitDx=0;exitDy=0;entryX=0.488;entryY=1.039;entryDx=0;entryDy=0;entryPerimeter=0;" edge="1" parent="1" source="XY5Rfa_UpzDAay3s06gO-61" target="XY5Rfa_UpzDAay3s06gO-59">
          <mxGeometry relative="1" as="geometry">
            <mxPoint x="-928.5" y="1020" as="sourcePoint" />
            <mxPoint x="-870" y="890" as="targetPoint" />
            <Array as="points">
              <mxPoint x="-847" y="886" />
            </Array>
          </mxGeometry>
        </mxCell>
      </root>
    </mxGraphModel>
  </diagram>
</mxfile>
